<?xml version="1.0" encoding="UTF-8"?>
<svg viewBox="0 0 354.4375 357.6625" xmlns="http://www.w3.org/2000/svg">
 <g transform="matrix(1.25 0 0 -1.25 0 357.66)">
  <g transform="scale(.24)" fill-rule="evenodd">
   <path d="m580 218.39 71.602 7.156 35.804 10.75 32.223 10.734 64.438 35.797 28.652 21.485 25.058 21.492 25.059 25.054 17.902 28.641 21.489 28.641 14.32 32.226 10.734 35.805 10.739 32.223 3.586 35.797 3.582 39.375-7.168 71.609-10.739 35.808-10.734 32.219-14.32 32.223-21.489 32.223-17.902 25.058-25.059 28.641-25.058 21.488-28.652 21.481-32.211 17.894-32.227 14.32-32.223 14.325-71.613 14.316h-75.172l-35.808-7.152-32.227-7.164-35.809-14.325-32.207-14.32-28.64-17.894-28.653-21.481-25.058-21.488-25.059-28.641-21.472-25.058-17.918-32.223-28.641-64.442-7.152-35.808-7.153-71.609 3.582-39.375 3.571-35.797 7.152-32.223 14.336-35.805 14.305-32.226 17.918-28.641 21.472-28.641 25.059-25.054 25.058-21.492 28.653-21.485 28.64-17.89 32.207-17.907 35.809-10.734 32.227-10.75 35.808-3.57 39.379-3.586" fill="#f6bec4"/>
   <path d="m887.89 261.35-14.321-14.325-17.886-14.32-14.321-10.734-17.906-14.321-35.808-21.488-21.473-7.152-17.906-10.754-21.469-7.149-17.922-7.156-21.473-7.164-64.449-10.75h-82.336l-21.488 3.578-35.797 7.172-21.484 3.582-17.907 3.582-53.695 21.477-14.32 7.168-17.903 10.718-14.32 10.75-17.906 7.168-14.32 10.739-14.321 14.32 42.961 25.059-218.39 125.31v-254.2l53.696 32.211 17.906-17.887 42.961-35.809 25.055-14.32 21.488-14.324 50.129-28.641 50.113-21.469 25.059-7.1719 28.636-7.1641 25.075-7.1523 85.937-10.738h64.43l14.324 3.582h28.641l17.902 3.5664 28.645 7.1563 17.898 3.5859 42.961 10.75 14.324 7.1524 14.32 3.5859 14.321 7.1563 10.738 7.1601 14.32 3.5899 28.637 14.316 10.754 7.1523 14.316 7.1719 10.739 10.734 14.32 7.1528 10.738 7.167 14.321 10.75 10.75 7.153 64.436 64.433-121.73 68.036" fill="#eb222c"/>
   <path d="m633.7 1066.9-218.4 125.31v-60.86l-46.532-17.9-42.976-17.91-39.379-21.48-39.375-25.06-35.809-25.06-64.449-64.444-57.281-71.609-21.473-39.375-21.488-42.969-28.641-85.922-10.734-46.547-3.5859-46.539-3.582-50.121v-25.078l3.582-25.051v-25.058l7.168-25.059 3.5703-25.055 3.582-21.488 7.1563-25.074 10.75-25.055 118.14 71.617-7.168 28.637-7.164 32.227-3.57 32.211v68.023l3.57 32.227 7.164 35.796 10.754 28.645 10.719 32.223 10.754 28.64 35.808 57.281 17.887 25.067 21.488 25.062 21.489 21.481 25.058 21.48 28.637 21.481 25.059 17.902 28.64 14.32 32.227 14.321v-50.121l218.4 128.88" fill="#eb222c"/>
   <path d="m1131.4 411.72 7.17 17.902 7.15 42.961 3.58 17.902 3.58 21.489v21.472l3.57 21.473v46.555l-3.57 28.64-7.16 50.117-3.59 21.481-14.31 50.121-7.16 21.488-7.17 25.059-32.2 64.449-14.34 21.481-10.74 17.894-14.32 21.488-17.9 17.899-14.32 17.902-17.89 17.899-14.339 17.902-17.887 17.903-17.902 14.32-21.489 14.32-17.89 14.32-21.489 14.32-85.921 42.97-25.071 7.16-21.476 7.15-50.125 14.33v-139.63l35.804-10.745 32.227-14.32 32.211-17.899 28.656-17.902 57.277-42.961 21.477-25.063 25.07-28.644 35.797-57.281 17.899-32.223 10.742-32.223 10.749-35.804 14.32-71.598v-64.461l-3.58-21.469v-25.058l-7.17-25.059-46.546 28.641v-250.62l218.41 125.31-50.13 28.645" fill="#eb222c"/>
   <path d="m784.06 673.07-7.153 32.227-39.375 85.922-3.59 57.289-25.07 68.015-7.148 14.325 14.32 14.316-3.586 3.586v14.316h3.586v3.586h-3.586l-7.164 7.16-7.156 3.579-14.321 3.582h-14.32l-21.488-3.582-25.059-10.739h-3.582v-7.16l3.582-7.16v-14.32l7.168-7.164-10.75-32.219-17.891-64.442-3.582-42.968-39.39-96.668v-304.31l64.445-32.226 64.449-3.582 75.184 17.89 25.059 21.488-3.582 279.26" fill="#fff"/>
   <path d="m547.78 615.8-3.586 7.156-3.582 10.738-7.168 14.321h-3.586l-3.578 7.16h-3.574l-10.731 10.746h-7.171v53.703l-3.582 3.578h-3.586l-3.571 3.578-3.582 3.582h-7.156l-7.164 3.582h-7.168l-7.152 3.575h-17.907l-10.734 3.586h-85.934l-10.726-3.586h-17.918l-7.152-3.575h-7.153l-7.168-3.582h-7.164l-7.156-7.16h-3.566l-3.586-3.578v-53.703h-3.582l-14.336-14.32h-3.571l-10.734-10.746v-10.735l-3.586-10.746v-46.547l3.586-93.074v-136.06l10.734-10.723 21.489-10.754 32.222-10.731h14.309l10.75-3.585h14.308l14.332-3.586h60.868l14.3 3.586h14.34l14.321 3.585h14.32l42.957 14.321 14.324 7.164 10.75 10.723v272.11" fill="#fff"/>
   <path d="m680.24 694.56-3.59 3.586-7.148 14.316v3.582l-14.32 14.32h-3.582v3.582h-3.586l-3.571 35.801v10.742l-14.32 7.161h-10.75l-14.305 3.578h-14.336l-17.89 3.586h-32.223l-14.332-3.586h-14.305l-14.339-3.578h-10.719l-14.34-7.161-3.582-7.16v-39.383l-21.473-21.484-3.586-7.156v-121.74l3.586-71.586v-42.977l3.586-3.582h3.582l3.582-3.586 21.477-10.719h7.168l7.148-3.586 10.739-3.582h10.75l10.726-3.582h68.028l10.753 3.582h10.723l21.504 7.168h7.148l21.489 10.719 3.57 3.586h7.148v3.582l3.59 3.586v221.97" fill="#fff"/>
   <path d="m912.96 540.62v7.153l-7.164 14.32-14.32 14.324h-3.586l-3.571 3.582h-3.582v42.957l-7.168 7.164-10.734 3.574-10.742 3.582h-10.731l-14.32 3.579h-68.035l-10.738-3.579h-14.321l-10.734-3.582-14.336-7.156-3.578-3.582v-42.957l-10.727-10.738-7.168-3.582-7.164-14.34v-229.12l14.332-14.316 14.305-7.153h7.172l14.32-7.168h10.735l10.75-3.582h10.734l10.738-3.59h46.547l10.738 3.59h10.75l10.731 3.582h10.742l10.734 3.586 7.168 3.582h7.153l14.336 7.153 10.734 10.734h3.586v186.18l-3.586 35.808" fill="#fff"/>
   <path d="m558.51 390.25 64.445-32.226 64.449-3.582 75.184 17.89 25.059 21.488-3.582 279.26-7.153 32.227-39.375 85.922-3.59 57.289-25.07 68.015-7.148 14.325 14.32 14.316-3.586 7.168v10.734h3.586v3.586h-3.586l-7.164 7.16-7.156 3.579-14.321 3.582h-14.32l-21.488-3.582-25.059-10.739h-3.582v-7.16l3.582-7.16v-14.32l7.168-7.164-10.75-32.219-17.891-64.442-3.582-42.968-39.39-96.668v-304.31" fill="#7dcf80"/>
   <path d="m590.73 390.25h7.168v-3.582h7.168l-7.168 232.71 3.582 21.481 3.586 28.648 7.149 50.121 7.156 25.059 3.582 17.902 3.586 10.742v3.578l-7.168 7.161-3.582-3.579-3.574-10.742-14.317-28.64-14.32-35.801-3.582-14.321-3.57-10.746v-282.84l3.57-3.582h3.582l7.152-3.57" fill="#fff"/>
   <path d="m673.08 429.62h17.906l14.309-3.582h14.328l32.227-10.738 3.57-7.168 3.582-3.586v7.172l-7.152 7.164-7.168 3.586-21.473 7.152-14.336 3.566h-17.887l-17.906 3.582-17.902-3.582h-17.887l-14.34-3.566-10.738-3.582-14.317-3.57-7.168-3.586-3.585-7.164-3.567-3.586 3.567-3.586v3.586l7.168 7.168 32.226 10.738h14.32l14.321 3.582h17.902" fill="#848b91"/>
   <path d="m751.85 397.4h7.152l7.168 7.153v232.72l-3.586 42.961-10.734-282.84" fill="#231f20"/>
   <path d="m676.65 655.17h-10.718l-10.75 3.582h-10.739l-21.488 10.746h-3.582v7.164h3.582l3.586 3.57h17.902l7.157-3.57h32.222l10.75 3.57h17.891l7.164 3.586h7.172l3.57-3.586v-3.57l-3.57-3.59-7.172-3.574-7.164-3.582-7.164-3.586-10.727-3.578-10.75-3.582h-7.172" fill="#fff"/>
   <path d="m479.75 469h3.578l3.59-3.582h3.566l-3.566 232.72v3.574l7.148 10.742 3.571 7.164v3.578h-14.309v-3.578l-7.164-3.582-7.168-7.16-3.566-7.164-3.586-3.574v-221.97l3.586-3.582h3.566l10.754-3.586" fill="#c3ebf5"/>
   <path d="m558.51 504.81 17.918-3.582h28.64l14.305-3.586 10.75-3.582 14.32-7.157 3.571-3.582v7.168l-14.309 7.153-10.75 3.586-14.32 3.582h-14.32l-14.317 3.582h-35.797l-17.914-3.582h-14.305l-14.339-3.582-10.719-3.586-7.168-3.582-3.586-3.571-3.586-3.586v-3.582l3.586 3.582 14.32 7.157 10.739 3.582 14.332 3.586h28.64l14.309 3.582" fill="#848b91"/>
   <path d="m676.65 690.98v7.161l-7.148 14.316v3.582l-7.152 7.16h-3.586l-7.164 7.16h-3.586l-3.571 3.582h-7.148l3.566-7.164h3.582l3.571-3.578h3.586v-3.578l7.164-7.164h3.586l3.582-3.578v-7.164l3.57-7.16v-7.16l3.582-32.223v-175.42l-10.734-10.75h-3.586l-7.164-3.582-3.586-3.586-7.153-3.566h-10.738l-7.168-3.586h-10.738l-7.149-3.567h-10.753l-10.735-3.586h-46.543l-10.75 3.586h-10.726l-7.168 3.567h-10.75l-7.153 3.586h-7.156l-21.484 10.734h-3.571l-7.164 7.168v107.4l-3.586 71.609v35.808l3.586 10.735v7.164l3.582 7.16 7.153 3.582 10.734 10.738v3.582h-3.582l-3.566-3.582h-3.586v-3.582h-3.571l-7.164-7.156-7.172-14.32v-232.72l10.754-10.754h3.582l3.571-3.566 14.32-7.153 10.754-3.586h7.148l21.489-7.164h21.476l10.75-3.59h25.055l10.738 3.59h21.488l21.473 7.164h7.164l10.738 3.586 14.321 7.153 3.586 3.566h7.152l7.148 7.168v221.98" fill="#231f20"/>
   <path d="m558.51 787.64h32.222l14.336-3.582h10.723l21.504-7.161 7.148-7.16v7.16l-14.32 7.161-10.75 3.582h-14.305l-14.336 3.578h-68.019l-14.32-3.578h-14.321l-10.738-3.582-7.164-3.579-3.586-3.582-3.582-3.578v-3.582l3.582 3.582 14.34 7.16 10.719 3.579h14.339l14.305 3.582h32.223" fill="#231f20"/>
   <path d="m558.51 723.2h-32.223l-14.305 3.578h-14.339l-10.719 3.582-14.34 7.157-3.582 3.586 3.582-3.586 3.586-7.157 7.164-3.582 10.738-3.578h14.321l14.32-3.578h68.019l14.336 3.578h14.305l10.75 3.578 7.172 3.582 7.148 7.157v3.586l-7.148-7.161-21.504-7.164h-10.723l-14.336-3.578h-32.222" fill="#231f20"/>
   <path d="m558.51 719.62-17.891 3.578h-28.637l-14.339 3.578-10.719 3.582-14.34 7.157-3.582 3.586v-3.586l7.168-7.157 7.164-3.582 10.738-3.578 14.321-3.578h14.32l17.906-3.582h35.809l14.304 3.582h14.336l14.305 3.578 10.75 3.578 14.32 7.164v7.161l-7.148-7.161-32.227-10.742h-32.226l-14.332-3.578" fill="#848b91"/>
   <path d="m554.94 730.36h-14.321l-17.906 3.582-14.32 3.575h-10.75l-21.473 7.164-3.586 3.582-3.582 7.16v-7.16l14.332-7.16 10.738-3.586 42.965-10.739h53.695l14.336 3.582h14.305l10.75 3.582 14.32 7.161v7.16l-3.582-7.16h-3.566l-32.227-10.743h-50.128" fill="#231f20"/>
   <path d="m554.94 730.36h-32.227l-14.32 3.582-32.223 10.739-7.168 7.156v-7.156l14.332-7.164 10.738-3.575 14.321-3.582h14.32l14.324-3.582h68.031l14.305 3.582h10.75l14.32 7.157v7.164l-7.148-7.164-10.754-3.575h-10.75l-10.723-3.582h-50.128" fill="#848b91"/>
   <path d="m558.51 741.1h-17.891l-17.906 3.578-14.32 3.582h-10.75l-10.719 3.574-7.168 3.586-10.754 10.746v-3.586l7.168-7.16 7.164-3.586 10.738-3.574 28.641-7.16 17.906-3.586h50.113l14.336 3.586h14.305l10.75 3.578 14.32 7.156v7.168l-7.148-7.168-32.227-10.734h-46.558" fill="#231f20"/>
   <path d="m558.51 741.1h-35.797l-14.32 3.578-21.469 7.156-14.34 7.168-3.582 3.578 3.582-7.16 3.586-3.586 7.164-3.574 10.738-3.582 14.321-3.578h14.32l17.906-3.586h64.449l14.305 3.586h10.75l14.32 7.16v7.16l-7.148-7.16-10.754-3.582h-10.75l-10.723-3.578h-46.558" fill="#848b91"/>
   <path d="m554.94 751.84h-14.321l-17.906 3.586h-14.32l-32.223 10.746-7.168 7.156v-7.156l14.332-7.164 10.738-3.582 14.321-3.586h14.32l14.324-3.574h68.031l14.305 3.574 10.75 3.586 14.32 7.16v3.586l-3.582-3.586-14.32-7.16h-10.75l-14.309-3.586h-46.542" fill="#231f20"/>
   <path d="m554.94 748.26-14.321 3.574h-17.906l-14.32 3.586-32.223 10.746-7.168 7.156v-7.156l14.332-7.164 10.738-3.582 28.641-7.16h14.324l17.903-3.582h35.792l14.336 3.582h14.305l10.75 3.574 14.32 7.168v7.164l-3.582-3.586-14.32-7.16-10.75-3.586h-14.309l-14.335-3.574h-32.207" fill="#848b91"/>
   <path d="m558.51 751.84-17.891 3.586h-32.226l-21.469 7.16-14.34 7.16-3.582 3.582v-3.582l7.168-7.16 7.164-3.578 10.738-3.582 14.321-3.586h14.32l17.906-3.574h32.223l17.89 3.574h14.336l14.305 3.586 10.75 3.582 14.32 7.164v7.156l-7.148-7.156-32.227-10.746h-32.226l-14.332-3.586" fill="#231f20"/>
   <path d="m565.68 762.58h-46.547l-7.149-3.578h-7.171 3.582l3.589-3.582h14.305l7.164 3.582h60.864l3.585-3.582h10.735l3.582 3.582h3.574-7.156l-3.567 3.578h-39.39" fill="#848b91"/>
   <path d="m648.01 472.59 3.586 3.582h7.164l3.586 3.582v103.81l-3.586 68.035v32.222l-10.75-211.23" fill="#231f20"/>
   <path d="m662.35 694.56-3.586 7.16-10.75 10.742h-7.153l-3.566 3.582h-7.172l-3.582 3.582 3.582-10.742 3.582-3.578h3.59l3.566-3.586-3.566-3.574h7.148v-7.161h-21.488l-7.164-3.585h-21.476l-7.168-3.575h-7.149 46.543l17.902 3.575 10.739 3.585 7.168 3.575" fill="#231f20"/>
   <path d="m286.42 336.54h7.156l3.582-3.57h3.586l-3.586 289.99v3.582l3.586 3.582 3.582 7.156 3.582 3.579v7.16l3.571 3.586v3.574l-10.735 3.582-3.586-3.582-7.164-3.574-10.722-10.746-7.168-3.579-3.586-7.156-3.582-3.582v-279.26l3.582-3.582h3.586l3.582-3.567 10.734-3.586" fill="#c3ebf5"/>
   <path d="m393.83 379.5h42.945l10.754-3.582h7.168l10.739-3.586h14.32l14.316-7.152h3.571l3.586-3.571h3.582l3.582-3.585v-3.582h3.589v7.167l-3.589 3.571h-3.582l-7.168 7.152h-7.153l-7.156 3.586-7.164 3.582h-17.891l-7.164 3.582h-32.226l-10.75 3.586h-25.059l-10.734-3.586h-32.227l-10.738-3.582h-14.316l-10.739-3.582-3.582-3.586h-7.168l-3.582-3.57-7.156-3.582-3.566-3.571v-7.167l7.148 7.167h3.574l7.164 7.153h7.168l7.153 3.57h7.152l7.168 3.586h17.906l10.735 3.582h39.39" fill="#848b91"/>
   <path d="m547.78 619.37v7.164l-7.168 7.156-3.582 10.747v3.574l-3.586 3.586-7.164 3.574-10.726 10.746h-3.579l-3.589 3.582h-10.75l3.586-7.168 3.582-3.578h3.582l3.589-3.582 7.149-3.574 14.32-14.325v-7.156l3.586-10.746 3.582-7.16v-128.89l3.582-89.504v-39.378l-3.582-3.583v-3.585l-3.582-3.582-7.172-3.567-3.578-3.586-10.726-3.57-7.168-3.586-32.223-10.75h-10.734l-14.321-3.582h-14.34l-14.3-3.567h-57.282l-14.336 3.567h-14.308l-10.75 3.582h-14.32l-21.485 7.172-28.644 14.32-10.735 10.734v132.46l-3.57 85.938v46.539l3.57 14.32v10.735l14.321 14.32h3.582l7.168 7.16h3.586l3.566 7.168h-10.734v-3.582h-3.586l-7.168-7.164-7.153-3.582-10.734-10.734v-10.747l-3.586-10.738v-143.2l3.586-89.504v-50.125l10.734-10.742 21.489-10.75 32.222-10.734 14.309-3.586h10.75l14.308-3.567h17.918l14.305-3.582h32.223l14.336 3.582h14.308l14.332 3.567h14.305l14.332 3.586 32.227 10.734 28.64 14.336 3.586 7.156 3.57 3.567v232.73l-3.57 42.957" fill="#231f20"/>
   <path d="m390.25 737.52h53.695l7.172-3.575h10.735l7.152-3.582h7.168l7.164-3.582h7.156l3.582-3.578h3.571l7.168-7.16h3.582v3.582l-7.164 7.156h-3.586l-3.571 3.582-7.148 3.582h-7.168l-7.172 3.575h-7.148l-10.739 3.586h-17.922l-10.718 3.578h-68.032l-10.75-3.578h-21.476l-7.168-3.586h-10.723l-7.164-3.575h-3.586l-7.164-3.582-3.574-3.582h-3.582l-7.152-7.156v-3.582h3.586l3.566 3.582v3.578h7.156l3.582 3.578h7.168l7.164 3.582h7.157l7.152 3.582h7.164l10.738 3.575h50.129" fill="#231f20"/>
   <path d="m390.25 655.17h-32.223l-10.75 3.582h-17.894l-7.164 3.578h-10.738l-7.153 3.586h-7.168l-3.582 3.582h-7.156l-7.148 7.164h-3.586v3.57-3.57l3.586-3.59v-3.574l3.566-3.582h7.156l3.582-3.586h7.168l7.164-3.578h10.723l7.168-3.582h10.75l10.726-3.574h89.5l10.754 3.574h7.168l10.739 3.582h7.148l7.172 3.578h7.168l7.148 3.586h3.571l7.168 7.156v3.59h3.582v3.57l-3.582-3.57h-3.582v-3.59l-7.157-3.574h-3.582l-7.156-3.582h-7.164l-7.168-3.586h-7.152l-7.153-3.578h-21.488l-10.734-3.582h-32.227" fill="#231f20"/>
   <path d="m390.25 655.17h-50.129l-10.738 3.582h-7.164l-10.738 3.578h-7.153l-7.168 3.586h-3.582l-7.156 3.582h-3.582l-7.152 7.164v3.57-7.16l7.152-7.156 7.156-3.586h3.582l7.168-3.578 7.164-3.582h17.891l10.75-3.574h21.476l10.75-3.586h46.532l10.75 3.586h21.472l7.168 3.574h17.887l14.34 7.16h7.148l7.157 7.168h3.582v3.574l3.582 3.59v3.57l-7.164-7.16v-3.574h-7.157l-3.582-3.582h-7.156l-7.164-3.586h-7.168l-7.152-3.578h-7.153l-10.754-3.582h-53.695" fill="#848b91"/>
   <path d="m390.25 665.92h-21.473l-10.75 3.582h-21.476l-7.168 3.574h-10.75l-7.152 3.59h-7.153l-14.332 7.156h-3.574l-7.148 7.16h-3.586v3.575-7.16l3.586-3.575h3.566l7.156-3.586 3.582-3.57 7.168-3.59h7.164l7.157-3.574h10.734l7.168-3.582h10.738l10.735-3.586h100.26l7.153 3.586h17.906l7.168 3.582 3.566 3.574h7.153l7.168 7.16v7.161-3.575l-3.582-3.586h-3.586l-7.153-7.16h-14.32l-7.168-3.574h-7.152l-10.735-3.582h-60.867" fill="#231f20"/>
   <path d="m390.25 662.33-10.75 3.586h-32.223l-10.726 3.582h-7.168l-10.75 3.574h-7.152l-14.321 7.16h-7.164l-7.156 7.161h-3.566l-3.586 3.585v3.575-7.16l7.152-7.161 7.156-3.57h3.582l7.168-3.59 7.164-3.574h7.157l10.734-3.582h7.168l10.738-3.586h21.488l14.305-3.578h53.711l10.734 3.578h28.641l7.172 3.586h7.168l3.566 3.582 7.153 3.574h3.586l3.582 3.59v7.156-3.586h-3.582l-7.157-7.16h-3.582l-7.156-3.574h-7.164l-7.168-3.582h-25.059l-10.734-3.586h-42.961" fill="#848b91"/>
   <path d="m390.25 680.23h-32.223l-10.75 3.586h-7.156l-10.738 3.575h-7.164l-10.738 3.585h-7.153l-7.168 3.575h-3.582l-7.156 3.586-10.734 10.738v-3.578l3.586-3.586v-3.574l3.566-3.586h7.156l3.582-3.575 7.168-3.585h7.164l10.723-3.575 7.168-3.586h21.476l7.165-3.57h25.058l10.75-3.59h35.809l10.718 3.59h17.922l10.739 3.57h14.32l7.168 3.586h7.148l7.157 7.16h3.582l3.582 3.575v3.586h-3.582l-7.168-7.161h-3.571l-3.582-3.585h-7.156l-7.164-3.575h-14.32l-10.735-3.586h-60.867" fill="#231f20"/>
   <path d="m390.25 676.66h-10.75l-10.723 3.57h-21.5l-7.156 3.586h-10.738l-7.164 3.575h-10.738l-7.153 3.585h-7.168l-3.582 3.575-7.156 3.586h-3.582l-3.566 3.574v3.586h-3.586v-3.586l7.152-7.16 7.156-3.575 3.582-3.585h7.168l7.164-3.575 10.723-3.586h17.918l10.726-3.57h7.165l14.335-3.59h78.754l7.168 3.59h17.887l7.172 3.57h7.168l7.148 3.586 3.571 3.575h3.586l7.164 7.16v3.586l-7.164-7.161h-3.586l-3.571-3.585h-3.582l-7.156-3.575h-7.164l-7.168-3.586h-25.059l-10.734-3.57h-42.961" fill="#848b91"/>
   <path d="m390.25 690.98h-21.473l-10.75 3.575h-10.75l-10.726 3.586h-17.918l-14.305 7.16h-7.168l-7.164 3.578-3.574 3.578h-3.582l-7.152 7.164v-7.164h3.586l3.566-3.578 7.156-3.578 3.582-3.586h7.168l7.164-3.574 7.157-3.586h10.734l7.168-3.575h21.473l10.753-3.585h78.75l10.754 3.585h17.887l7.172 3.575h7.168l3.566 3.586h7.153l7.168 7.16v7.156-3.578l-3.582-3.578h-3.586l-3.571-3.586h-3.582l-7.156-3.574h-7.164l-7.168-3.586h-17.887l-7.172-3.575h-53.695" fill="#231f20"/>
   <path d="m390.25 690.98h-32.223l-10.75 3.575h-10.726l-10.75 3.586h-14.32l-14.321 7.16h-7.164l-7.156 7.156h-3.566l-3.586 3.582v3.582-7.164l7.152-7.156h7.156l3.582-3.586 7.168-3.574h7.164l7.157-3.586 10.734-3.575h17.906l10.735-3.585h35.808l10.738-3.575h10.735l10.754 3.575h39.375l10.734 3.585h7.172l7.168 3.575h3.566l7.153 3.586 3.586 3.574h3.582v7.164l-7.168-7.164h-3.571l-3.582-3.574h-7.156l-7.164-3.586h-7.168l-7.152-3.575h-71.602" fill="#848b91"/>
   <path d="m390.25 694.56h-42.973l-10.726 3.586h-17.918l-7.152 3.574h-7.153l-7.168 3.586h-3.582l-7.156 3.578-3.582 3.578h-3.566l-3.586 3.582v3.582-7.164l7.152-7.156h7.156l3.582-3.586 7.168-3.574h7.164l10.723-3.586h7.168l10.75-3.575h107.39l10.754 3.575h10.739l7.148 3.586h7.172l7.168 3.574 3.566 3.586h7.153l7.168 7.156v7.164-3.582l-3.582-3.582h-3.586l-7.153-7.156h-7.156l-7.164-3.586h-7.168l-7.152-3.574h-17.907l-10.734-3.586h-42.961" fill="#231f20"/>
   <path d="m400.98 708.88h-10.738l-10.75-3.578h-39.379l-10.738-3.586h-7.164l3.582-3.574h32.226l10.75 3.574h64.434l7.156-3.574h17.914l3.571 3.574h7.152l-7.152 3.586h-42.961l-10.75 3.578h-7.153" fill="#848b91"/>
   <path d="m508.39 343.69h7.168l14.304 7.167v42.961l-3.578 85.934v85.926l-3.574 39.375-14.32-261.36" fill="#231f20"/>
   <path d="m529.86 619.37-7.152 7.164-3.582 7.156-10.738 10.747h-7.164l-3.586 3.574h-10.719l-3.59 3.586 3.59-10.746 3.566-7.161h3.582l7.157-3.574-3.586-3.582h7.168v-7.164h-3.582l-3.586-3.574h-17.887l-10.754-3.586h-14.305l-14.332-3.578h-17.89v-3.582h39.375l10.734 3.582h21.488l10.739 3.578h7.171l7.149 3.586h7.156l3.578 3.574" fill="#231f20"/>
   <path d="m787.64 676.66v7.156l-3.582 7.16-3.571 10.735v3.586l-3.582 7.156-7.168 7.164-7.156 14.32-3.582 14.321-14.32 28.64-3.582 10.743v7.164l-3.567 21.476v17.906l-3.59 21.473-3.578 14.328-3.57 17.895-14.336 28.64-7.164 10.746-3.57-3.578 7.148-10.742 7.172-14.32 3.578-14.32 7.172-17.907 3.57-17.894 3.578-14.321v-39.382l3.59-7.164 3.567-10.743 7.164-14.32 3.586-17.902 14.32-28.641 7.152-10.738 3.586-7.16v-3.586l3.582-7.16v-10.731l3.571-7.164v-272.1l-3.571-3.582v-3.57l-3.582-3.582-7.168-3.586-3.57-3.582-21.488-10.738-10.739-3.582h-7.148l-10.75-3.571h-10.75l-10.727-3.585h-42.972l-10.739 3.585h-10.738l-10.75 3.571h-7.156l-10.735 3.582-21.484 10.738-3.57 3.582-7.168 3.586-3.582 3.582v3.57l-3.59 3.582v300.74l7.172 10.738 3.582 10.742 7.156 10.738 3.582 14.321 7.152 10.742 3.583 14.32 7.167 21.481 3.586 3.586v35.8l7.149 35.797 7.156 17.907 7.168 28.64 7.164 10.742-3.582 3.578-7.168-10.746-3.582-14.32-7.156-14.32-3.582-14.317-7.153-35.804-3.582-21.481v-28.64l-3.585-10.743-7.168-10.734-3.567-10.746-7.152-14.32-3.586-10.743-7.164-7.16-3.59-10.742-7.148-28.637v-290l3.57-3.57v-3.582l7.168-7.168 3.582-7.168 28.64-14.308 10.735-3.582 7.156-3.583h10.75l10.754-3.585h21.469l14.32-3.582 10.738 3.582h25.055l10.75 3.585h7.172l21.469 7.165 28.644 14.308 3.582 7.168 10.738 10.75v239.87l-3.585 46.547" fill="#231f20"/>
   <path d="m716.05 945.17-3.586-3.574h-3.586l-3.578-3.578h-3.57l-7.157-3.582h-50.129l-7.148 3.582h-7.172l-3.582 3.578h-3.586v3.574l-3.582-3.574 3.582-3.578v-3.582l7.168-3.582h3.582l7.156-3.579 10.739-3.578h35.804l14.325 7.157h7.148l7.172 7.164v7.152" fill="#231f20"/>
   <path d="m712.46 966.66-3.586-3.586h-3.578l-14.309-7.156h-50.129l-7.156 3.582-3.582 3.574h-7.168v3.586h-3.582v-7.16l3.582-3.582h3.586l14.32-7.16h17.903l7.168-3.586 10.718 3.586h17.922l7.157 3.582 3.57 3.578h7.164l3.586 3.582v7.16h-3.586" fill="#231f20"/>
   <path d="m665.93 959.5h7.152l3.566 3.574h17.922v7.164h-10.75l-7.172 3.582h-21.468l-3.582-3.582h-10.739v-3.578h-3.566 3.566v-3.586h14.321l7.168-3.574h3.582" fill="#231f20"/>
   <path d="m716.05 318.63 3.578-3.582h7.172l-3.586 229.14v7.148l7.156 7.172 3.578 7.168v3.582l-10.734 3.566h-3.586l-10.75-10.734-3.578-7.168-7.156-7.152v-221.97l3.586-3.59h3.57l10.75-3.582" fill="#fff"/>
   <path d="m798.38 350.86h32.226l14.317-3.585h10.754l10.734-3.582 14.32-7.153 3.582-3.57v7.156l-14.316 7.149-10.754 3.585-14.32 3.583h-32.211l-14.332 3.582-17.891-3.582h-32.226l-14.321-3.583-10.734-3.585-7.164-3.582-3.586-3.567-3.586-7.156 3.586 3.57 14.336 7.153 10.738 3.582h14.317l14.32 3.585h32.211" fill="#848b91"/>
   <path d="m912.96 540.62-3.582 7.153v7.152l-3.582 7.168-17.906 17.906h-3.571l-3.582 3.567h-3.586v-10.739h7.168v-3.566h3.571l7.168-3.582v-3.586h3.582l3.586-3.582v-7.172l3.57-10.719v-3.582l3.582-32.226v-175.43l-14.32-14.332h-7.168l-3.571-3.567-7.168-3.585-10.734-3.586h-7.168l-10.734-3.567h-7.153l-10.75-3.582h-68.023l-10.734 3.582h-7.168l-10.739 3.567h-7.148l-21.5 10.738h-7.156l-10.739 10.754v107.39l-3.582 68.036v39.39l3.582 7.153v10.738l3.586 7.168 7.153 3.582 7.156 7.156h3.578v7.149h-3.578v-3.567h-3.57l-7.157-7.172h-3.582l-3.586-3.566-7.164-14.336v-232.71l3.582-3.582v-3.582l3.582-3.567 14.325-7.171h3.57l10.75-3.567 14.32-7.168h10.735l10.75-3.582h21.472l10.739-3.59h25.07l10.738 3.59h21.488l10.731 3.582h10.742l7.168 3.586 10.734 3.582 7.153 3.567h7.168l7.168 3.586 10.734 10.734v3.582l3.586 3.59v107.39l-3.586 75.2v32.226" fill="#231f20"/>
   <path d="m794.81 637.27h32.226l14.32-3.582 10.731-3.574h10.742l10.734-3.582 3.582-3.582 3.586-7.156v7.156l-7.168 7.164-7.152 3.574-10.734 3.582h-10.754l-17.887 3.579h-68.035l-14.32-3.579h-14.317l-10.742-3.582-7.164-3.574-3.586-7.164-3.578-3.582 3.578 3.582 14.336 7.164h10.734l28.641 7.156h32.227" fill="#231f20"/>
   <path d="m794.81 569.26-17.903 3.566h-28.644l-14.321 3.59-10.734 3.582-14.336 7.149-3.578 3.589 3.578-7.171 3.586-3.567 7.164-3.582 10.742-3.59h14.317l14.32-3.566h17.906l17.903-3.582 17.902 3.582h14.324l17.887 3.566h10.754l10.734 3.59 14.32 7.149v7.171l-7.168-7.171-32.207-10.739h-32.226l-14.32-3.566" fill="#231f20"/>
   <path d="m794.81 569.26h-32.227l-28.641 7.156-10.734 3.582h-7.164l-10.75 10.738v-3.589l7.164-7.149 7.164-3.582 10.742-3.59 14.317-3.566h14.32l17.906-3.582h35.805l14.324 3.582h17.887l21.488 7.156 14.32 7.149v7.171l-3.586-3.589-3.582-7.149h-10.734l-21.473-7.172-14.32-3.566h-32.226" fill="#848b91"/>
   <path d="m791.23 580h-14.32l-17.906 3.567h-14.32l-21.473 7.171-14.336 7.157-3.578 3.586v-3.586l7.164-7.157 7.164-3.589 10.742-3.582 14.317-3.567h14.32l14.32-3.582h68.035l14.321 3.582 10.734 3.567 14.32 7.171v3.579l-3.586-3.579-14.316-7.171h-10.742l-14.317-3.567h-46.543" fill="#231f20"/>
   <path d="m791.23 576.41-14.32 3.582h-17.906l-14.32 3.567-21.473 7.171-14.336 7.157-3.578 3.586v-7.164l14.328-7.168 10.742-3.582 28.637-7.149h14.32l17.906-3.59h35.809l14.32 3.59h14.321l10.734 3.582 14.32 7.149v7.168l-3.586-3.579-14.316-7.171-10.742-3.567h-14.317l-14.32-3.582h-32.223" fill="#848b91"/>
   <path d="m794.81 590.73h-17.903l-17.906 3.579h-10.738l-14.321 3.578-10.734 3.586-14.336 7.156-3.578 3.578 3.578-3.578 3.586-7.156 7.164-3.586 10.742-3.578 14.317-3.579h14.32l17.906-3.589h64.449l14.321 3.589 10.734 3.579 14.32 7.164v3.574l-7.168-7.16-10.734-3.578h-10.742l-10.731-3.579h-46.546" fill="#231f20"/>
   <path d="m794.81 587.14-17.903 3.589h-17.906l-10.738 3.579-14.321 3.578-10.734 3.586-14.336 7.156-3.578 3.578v-3.578l7.164-7.156 7.164-3.586 10.742-3.578 28.637-7.168h17.906l14.32-3.582h21.485l14.324 3.582h28.641l10.734 3.589 14.32 7.157v7.16l-7.168-7.16-21.476-7.157h-10.731l-14.32-3.589h-32.226" fill="#848b91"/>
   <path d="m791.23 597.89-14.32 3.586h-17.906l-14.32 3.574-32.223 10.746-7.164 7.156v-7.156l14.328-7.164 10.742-3.582 28.637-7.16h82.355l14.321 3.586h10.734l7.152 3.574 3.582 3.582 3.586 7.164-3.586-3.586-14.316-7.16h-10.742l-28.637-7.16h-32.223" fill="#231f20"/>
   <path d="m791.23 597.89h-14.32l-17.906 3.586-14.32 3.574h-10.739l-21.484 7.16-3.586 3.586-3.578 7.156v-7.156l14.328-7.164 10.742-3.582 42.957-10.738h53.715l14.32 3.578h14.321l10.734 3.586 7.152 3.574 3.582 3.582 3.586 3.578v3.586l-3.586-3.586-14.316-7.16-10.742-3.574-14.317-3.586h-46.543" fill="#848b91"/>
   <path d="m794.81 601.48h-35.809l-10.738 3.574-14.321 3.582-10.734 3.578h-7.164l-7.172 3.586-3.578 7.156v-3.582l7.164-7.16 7.164-3.578 10.742-3.582 14.317-3.574h14.32l17.906-3.586h35.805l14.324 3.586h14.32l14.321 3.574 10.734 3.582 14.32 7.164v7.156l-3.586-7.156-3.582-3.586h-10.734l-21.473-7.16-14.32-3.574h-32.226" fill="#231f20"/>
   <path d="m801.96 612.21h-32.223l-7.156-3.578h-14.32l-7.164-3.582h39.39l7.153 3.582h28.644l3.582-3.582h25.055l3.586 3.582h3.578-7.164l-3.567 3.578h-39.394" fill="#848b91"/>
   <path d="m884.32 322.21h3.571l7.168 3.59 3.582 3.578v103.81l-3.582 68.036v28.64l-10.739-207.66" fill="#231f20"/>
   <path d="m898.64 540.62v3.571l-3.582 3.582-3.582 7.152-7.157 3.586-3.582 3.582h-3.586l-3.582 3.586h-10.734l3.582-7.168 3.586-3.586h3.566l3.582-3.586-3.582-3.566h7.168l-3.586-7.153h-10.734l-7.168-3.582h-17.887l-10.75-3.586h-14.32 46.543l17.902 3.586h10.739l7.164 3.582" fill="#231f20"/>
   <path d="m622.95 794.81-3.582 3.574v32.226l3.582 25.055 7.168 28.649 10.738 39.382h7.153v-3.582l-3.571-7.16-3.582-14.32-3.566-17.906-3.59-21.481v-21.48l-3.582-21.481v-32.222l-7.168 7.16v3.586" fill="#fff"/>
  </g>
 </g>
</svg>
